<svg xmlns="http://www.w3.org/2000/svg" xmlns:xlink="http://www.w3.org/1999/xlink" width="500" zoomAndPan="magnify" viewBox="0 0 375 112.499997" height="150" preserveAspectRatio="xMidYMid meet" version="1.0"><defs><g/></defs><path stroke-linecap="butt" transform="matrix(0.744668, 0, 0, 0.746681, 144.303484, 13.963328)" fill="none" stroke-linejoin="miter" d="M 0.00161645 1.498234 L 52.14842 1.498234 " stroke="#7d5d6c" stroke-width="3" stroke-opacity="1" stroke-miterlimit="4"/><path stroke-linecap="butt" transform="matrix(0.000000000000000046, -0.746789, 0.746681, 0.000000000000000046, 180.996981, 95.717937)" fill="none" stroke-linejoin="miter" d="M -0.00108877 1.500248 L 107.997686 1.500248 " stroke="#7d5d6c" stroke-width="3" stroke-opacity="1" stroke-miterlimit="4"/><g fill="#57484f" fill-opacity="1"><g transform="translate(2.906296, 80.313761)"><g><path d="M 33.90625 -57.0625 C 36.675781 -57.425781 39.363281 -57.390625 41.96875 -56.953125 C 44.570312 -56.515625 46.722656 -55.78125 48.421875 -54.75 C 49.296875 -54.1875 50.128906 -53.582031 50.921875 -52.9375 C 51.722656 -52.289062 52.40625 -51.539062 52.96875 -50.6875 C 53.539062 -49.84375 54.003906 -48.878906 54.359375 -47.796875 C 54.722656 -46.710938 54.90625 -45.476562 54.90625 -44.09375 C 54.957031 -42.601562 54.773438 -41.132812 54.359375 -39.6875 C 53.953125 -38.25 53.460938 -36.9375 52.890625 -35.75 C 51.242188 -32.25 49.132812 -29.117188 46.5625 -26.359375 C 43.988281 -23.609375 41.363281 -21.050781 38.6875 -18.6875 C 36.78125 -17.144531 34.835938 -15.613281 32.859375 -14.09375 C 30.878906 -12.570312 28.832031 -11.140625 26.71875 -9.796875 C 24.601562 -8.460938 22.375 -7.226562 20.03125 -6.09375 C 17.695312 -4.96875 15.21875 -3.992188 12.59375 -3.171875 C 11.71875 -0.640625 10.929688 1.910156 10.234375 4.484375 C 9.535156 7.054688 8.800781 9.65625 8.03125 12.28125 C 8.488281 12.4375 8.726562 12.691406 8.75 13.046875 C 8.78125 13.410156 8.679688 13.785156 8.453125 14.171875 C 8.222656 14.554688 7.925781 14.898438 7.5625 15.203125 C 7.207031 15.515625 6.898438 15.695312 6.640625 15.75 C 6.128906 15.644531 5.859375 15.375 5.828125 14.9375 C 5.804688 14.5 5.847656 14.101562 5.953125 13.75 C 6.203125 12.5625 6.53125 11.363281 6.9375 10.15625 C 7.351562 8.945312 7.71875 7.800781 8.03125 6.71875 C 8.445312 5.070312 8.882812 3.460938 9.34375 1.890625 C 9.800781 0.316406 10.265625 -1.238281 10.734375 -2.78125 C 9.390625 -2.519531 8.140625 -2.582031 6.984375 -2.96875 C 5.828125 -3.351562 5.09375 -4.0625 4.78125 -5.09375 C 4.53125 -6.226562 4.519531 -7.285156 4.75 -8.265625 C 4.976562 -9.242188 5.320312 -10.144531 5.78125 -10.96875 C 6.25 -11.789062 6.789062 -12.546875 7.40625 -13.234375 C 8.03125 -13.929688 8.625 -14.566406 9.1875 -15.140625 C 10.320312 -16.160156 11.53125 -17.082031 12.8125 -17.90625 C 14.101562 -18.738281 15.414062 -19.539062 16.75 -20.3125 C 19.070312 -26.28125 21.40625 -32.171875 23.75 -37.984375 C 26.09375 -43.804688 28.5 -49.597656 30.96875 -55.359375 C 28.644531 -54.898438 26.441406 -54.296875 24.359375 -53.546875 C 22.273438 -52.804688 20.304688 -51.945312 18.453125 -50.96875 C 16.597656 -49.988281 14.804688 -48.929688 13.078125 -47.796875 C 11.359375 -46.660156 9.675781 -45.503906 8.03125 -44.328125 C 8.1875 -44.222656 8.335938 -44.171875 8.484375 -44.171875 C 8.640625 -44.171875 8.71875 -44.066406 8.71875 -43.859375 C 8.625 -43.492188 8.429688 -43.257812 8.140625 -43.15625 C 7.859375 -43.0625 7.613281 -42.910156 7.40625 -42.703125 C 7.207031 -42.597656 7.039062 -42.441406 6.90625 -42.234375 C 6.78125 -42.035156 6.613281 -41.882812 6.40625 -41.78125 C 6.25 -41.625 6.054688 -41.476562 5.828125 -41.34375 C 5.597656 -41.21875 5.378906 -41.078125 5.171875 -40.921875 C 4.609375 -40.566406 4.015625 -40.15625 3.390625 -39.6875 C 2.773438 -39.226562 2.109375 -38.867188 1.390625 -38.609375 C 0.972656 -38.765625 0.726562 -38.941406 0.65625 -39.140625 C 0.582031 -39.347656 0.609375 -39.582031 0.734375 -39.84375 C 0.859375 -40.101562 1.023438 -40.359375 1.234375 -40.609375 C 1.441406 -40.867188 1.648438 -41.078125 1.859375 -41.234375 C 2.578125 -41.953125 3.382812 -42.671875 4.28125 -43.390625 C 5.1875 -44.117188 6 -44.765625 6.71875 -45.328125 C 10.113281 -47.953125 13.816406 -50.253906 17.828125 -52.234375 C 21.847656 -54.222656 26.378906 -55.703125 31.421875 -56.671875 C 31.628906 -56.929688 31.8125 -57.28125 31.96875 -57.71875 C 32.125 -58.15625 32.273438 -58.578125 32.421875 -58.984375 C 32.578125 -59.398438 32.757812 -59.773438 32.96875 -60.109375 C 33.175781 -60.441406 33.460938 -60.660156 33.828125 -60.765625 C 33.972656 -60.867188 34.148438 -60.859375 34.359375 -60.734375 C 34.566406 -60.609375 34.722656 -60.441406 34.828125 -60.234375 C 34.984375 -59.710938 34.929688 -59.117188 34.671875 -58.453125 C 34.410156 -57.785156 34.15625 -57.320312 33.90625 -57.0625 Z M 33.046875 -56.984375 L 33.515625 -56.984375 C 33.410156 -57.140625 33.304688 -57.21875 33.203125 -57.21875 C 33.203125 -57.164062 33.148438 -57.085938 33.046875 -56.984375 Z M 30.8125 -13.984375 C 33.488281 -15.878906 36.007812 -17.90625 38.375 -20.0625 C 40.75 -22.226562 43.015625 -24.550781 45.171875 -27.03125 C 46.097656 -28.0625 47.023438 -29.207031 47.953125 -30.46875 C 48.878906 -31.726562 49.726562 -33.039062 50.5 -34.40625 C 51.269531 -35.769531 51.910156 -37.15625 52.421875 -38.5625 C 52.941406 -39.976562 53.253906 -41.382812 53.359375 -42.78125 C 53.566406 -45.96875 52.867188 -48.550781 51.265625 -50.53125 C 49.671875 -52.519531 47.640625 -53.953125 45.171875 -54.828125 C 44.347656 -55.128906 43.40625 -55.382812 42.34375 -55.59375 C 41.289062 -55.800781 40.195312 -55.941406 39.0625 -56.015625 C 37.9375 -56.097656 36.796875 -56.113281 35.640625 -56.0625 C 34.484375 -56.007812 33.414062 -55.878906 32.4375 -55.671875 C 29.8125 -50.160156 27.335938 -44.492188 25.015625 -38.671875 C 22.703125 -32.859375 20.515625 -26.992188 18.453125 -21.078125 C 19.171875 -21.492188 19.914062 -21.851562 20.6875 -22.15625 C 21.46875 -22.46875 22.21875 -22.78125 22.9375 -23.09375 C 23.144531 -23.144531 23.425781 -23.269531 23.78125 -23.46875 C 24.144531 -23.675781 24.378906 -23.578125 24.484375 -23.171875 C 24.535156 -22.910156 24.378906 -22.6875 24.015625 -22.5 C 23.648438 -22.320312 23.34375 -22.179688 23.09375 -22.078125 C 22.164062 -21.671875 21.25 -21.285156 20.34375 -20.921875 C 19.445312 -20.566406 18.640625 -20.179688 17.921875 -19.765625 C 17.046875 -17.242188 16.179688 -14.707031 15.328125 -12.15625 C 14.472656 -9.613281 13.6875 -7.03125 12.96875 -4.40625 C 16.414062 -5.4375 19.582031 -6.8125 22.46875 -8.53125 C 25.351562 -10.257812 28.132812 -12.078125 30.8125 -13.984375 Z M 16.140625 -18.84375 L 15.984375 -18.6875 C 14.898438 -18.125 13.765625 -17.425781 12.578125 -16.59375 C 11.398438 -15.769531 10.304688 -14.867188 9.296875 -13.890625 C 8.296875 -12.921875 7.445312 -11.867188 6.75 -10.734375 C 6.0625 -9.597656 5.664062 -8.414062 5.5625 -7.1875 C 5.457031 -5.53125 5.957031 -4.492188 7.0625 -4.078125 C 8.164062 -3.671875 9.46875 -3.597656 10.96875 -3.859375 C 11.84375 -6.378906 12.71875 -8.890625 13.59375 -11.390625 C 14.46875 -13.890625 15.316406 -16.375 16.140625 -18.84375 Z M 16.140625 -18.84375 "/></g></g></g><g fill="#57484f" fill-opacity="1"><g transform="translate(55.55591, 80.313761)"><g><path d="M 5.09375 -25.015625 C 5.195312 -25.015625 5.3125 -25.050781 5.4375 -25.125 C 5.570312 -25.207031 5.742188 -25.222656 5.953125 -25.171875 C 6.148438 -24.960938 6.273438 -24.703125 6.328125 -24.390625 C 6.378906 -24.085938 6.390625 -23.753906 6.359375 -23.390625 C 6.335938 -23.035156 6.300781 -22.648438 6.25 -22.234375 C 6.195312 -21.828125 6.171875 -21.441406 6.171875 -21.078125 C 6.171875 -20.203125 6.429688 -19.613281 6.953125 -19.3125 C 8.128906 -19.207031 9.179688 -19.375 10.109375 -19.8125 C 11.035156 -20.25 11.910156 -20.695312 12.734375 -21.15625 C 13.515625 -21.625 14.144531 -22.035156 14.625 -22.390625 C 15.113281 -22.753906 15.488281 -23.050781 15.75 -23.28125 C 16.007812 -23.507812 16.21875 -23.648438 16.375 -23.703125 C 16.53125 -23.753906 16.679688 -23.675781 16.828125 -23.46875 C 16.828125 -23.21875 16.738281 -23.015625 16.5625 -22.859375 C 16.382812 -22.703125 16.21875 -22.546875 16.0625 -22.390625 C 15.90625 -22.285156 15.738281 -22.15625 15.5625 -22 C 15.382812 -21.851562 15.191406 -21.726562 14.984375 -21.625 C 14.671875 -21.363281 14.320312 -21.117188 13.9375 -20.890625 C 13.550781 -20.660156 13.175781 -20.414062 12.8125 -20.15625 C 12.351562 -19.945312 11.878906 -19.726562 11.390625 -19.5 C 10.898438 -19.269531 10.394531 -19.050781 9.875 -18.84375 C 9.363281 -18.632812 8.820312 -18.488281 8.25 -18.40625 C 7.6875 -18.332031 7.070312 -18.347656 6.40625 -18.453125 C 5.632812 -18.816406 5.222656 -19.578125 5.171875 -20.734375 C 5.117188 -21.890625 5.195312 -22.957031 5.40625 -23.9375 C 5.144531 -23.78125 4.875 -23.535156 4.59375 -23.203125 C 4.3125 -22.867188 4.039062 -22.546875 3.78125 -22.234375 C 3.375 -21.929688 2.988281 -21.570312 2.625 -21.15625 C 2.257812 -20.75 1.859375 -20.335938 1.421875 -19.921875 C 0.984375 -19.515625 0.53125 -19.15625 0.0625 -18.84375 C -0.394531 -18.53125 -0.90625 -18.375 -1.46875 -18.375 C -1.675781 -18.476562 -1.929688 -18.6875 -2.234375 -19 C -2.390625 -20.082031 -2.222656 -21.070312 -1.734375 -21.96875 C -1.242188 -22.863281 -0.71875 -23.726562 -0.15625 -24.5625 C 0.363281 -25.226562 0.90625 -25.851562 1.46875 -26.4375 C 2.03125 -27.03125 2.671875 -27.457031 3.390625 -27.71875 C 3.910156 -27.925781 4.425781 -27.925781 4.9375 -27.71875 C 5.039062 -27.613281 5.117188 -27.507812 5.171875 -27.40625 C 5.222656 -27.3125 5.300781 -27.210938 5.40625 -27.109375 C 5.507812 -26.691406 5.507812 -26.316406 5.40625 -25.984375 C 5.300781 -25.648438 5.195312 -25.328125 5.09375 -25.015625 Z M -0.6875 -20.078125 C -0.125 -20.335938 0.359375 -20.644531 0.765625 -21 C 1.179688 -21.363281 1.59375 -21.75 2 -22.15625 C 1.90625 -22.363281 1.859375 -22.546875 1.859375 -22.703125 C 2.160156 -23.265625 2.503906 -23.800781 2.890625 -24.3125 C 3.273438 -24.832031 3.519531 -25.453125 3.625 -26.171875 C 2.695312 -25.347656 1.847656 -24.457031 1.078125 -23.5 C 0.304688 -22.550781 -0.28125 -21.410156 -0.6875 -20.078125 Z M -0.6875 -20.078125 "/></g></g></g><g fill="#57484f" fill-opacity="1"><g transform="translate(71.844869, 80.313761)"><g><path d="M 17.984375 -41.78125 C 18.816406 -41.832031 20.128906 -41.894531 21.921875 -41.96875 C 23.722656 -42.039062 25.601562 -42.050781 27.5625 -42 C 29.519531 -41.957031 31.347656 -41.84375 33.046875 -41.65625 C 34.742188 -41.476562 35.929688 -41.128906 36.609375 -40.609375 C 36.648438 -40.515625 36.757812 -40.363281 36.9375 -40.15625 C 37.125 -39.945312 37.28125 -39.710938 37.40625 -39.453125 C 37.539062 -39.203125 37.59375 -38.957031 37.5625 -38.71875 C 37.539062 -38.488281 37.375 -38.347656 37.0625 -38.296875 C 36.707031 -38.191406 36.382812 -38.34375 36.09375 -38.75 C 35.8125 -39.164062 35.539062 -39.476562 35.28125 -39.6875 C 34.5625 -40.050781 33.378906 -40.304688 31.734375 -40.453125 C 30.085938 -40.609375 28.320312 -40.695312 26.4375 -40.71875 C 24.5625 -40.75 22.757812 -40.738281 21.03125 -40.6875 C 19.3125 -40.632812 18.039062 -40.609375 17.21875 -40.609375 C 16.1875 -39.378906 15.117188 -38.03125 14.015625 -36.5625 C 12.910156 -35.09375 11.328125 -33.203125 9.265625 -30.890625 C 7.828125 -29.347656 6.382812 -27.816406 4.9375 -26.296875 C 3.5 -24.773438 1.929688 -23.394531 0.234375 -22.15625 C -0.078125 -21.03125 -0.398438 -19.796875 -0.734375 -18.453125 C -1.066406 -17.117188 -1.3125 -15.78125 -1.46875 -14.4375 C -1.570312 -12.945312 -1.554688 -11.492188 -1.421875 -10.078125 C -1.296875 -8.660156 -0.769531 -7.59375 0.15625 -6.875 C 1.238281 -6.71875 2.265625 -6.972656 3.234375 -7.640625 C 4.210938 -8.316406 5.015625 -8.9375 5.640625 -9.5 C 7.023438 -10.582031 8.410156 -11.753906 9.796875 -13.015625 C 11.191406 -14.273438 12.554688 -15.5625 13.890625 -16.875 C 15.234375 -18.1875 16.507812 -19.5 17.71875 -20.8125 C 18.925781 -22.125 20.019531 -23.375 21 -24.5625 C 21.207031 -24.8125 21.390625 -25.078125 21.546875 -25.359375 C 21.703125 -25.648438 21.957031 -25.742188 22.3125 -25.640625 C 22.570312 -25.273438 22.5625 -24.960938 22.28125 -24.703125 C 22 -24.453125 21.78125 -24.222656 21.625 -24.015625 C 21.050781 -23.296875 20.457031 -22.570312 19.84375 -21.84375 C 19.226562 -21.125 18.609375 -20.429688 17.984375 -19.765625 C 17.109375 -18.835938 16.257812 -17.921875 15.4375 -17.015625 C 14.613281 -16.117188 13.738281 -15.257812 12.8125 -14.4375 C 11.9375 -13.507812 11.035156 -12.632812 10.109375 -11.8125 C 9.179688 -10.988281 8.234375 -10.164062 7.265625 -9.34375 C 6.847656 -9.082031 6.394531 -8.734375 5.90625 -8.296875 C 5.414062 -7.859375 4.898438 -7.421875 4.359375 -6.984375 C 3.816406 -6.546875 3.222656 -6.1875 2.578125 -5.90625 C 1.941406 -5.625 1.238281 -5.535156 0.46875 -5.640625 C 0 -5.691406 -0.382812 -5.832031 -0.6875 -6.0625 C -1 -6.289062 -1.285156 -6.5625 -1.546875 -6.875 C -2.160156 -7.800781 -2.546875 -8.921875 -2.703125 -10.234375 C -2.859375 -11.546875 -2.882812 -12.882812 -2.78125 -14.25 C -2.675781 -15.613281 -2.484375 -16.953125 -2.203125 -18.265625 C -1.921875 -19.578125 -1.625 -20.75 -1.3125 -21.78125 C -1.414062 -22.03125 -1.519531 -22.21875 -1.625 -22.34375 C -1.726562 -22.476562 -1.753906 -22.675781 -1.703125 -22.9375 C -1.597656 -23.1875 -1.476562 -23.335938 -1.34375 -23.390625 C -1.21875 -23.441406 -1.023438 -23.492188 -0.765625 -23.546875 C 0.160156 -26.585938 1.253906 -29.429688 2.515625 -32.078125 C 3.773438 -34.734375 5.148438 -37.296875 6.640625 -39.765625 C 3.546875 -39.503906 0.613281 -39.140625 -2.15625 -38.671875 C -4.9375 -38.210938 -7.898438 -37.910156 -11.046875 -37.765625 C -11.554688 -37.867188 -12.003906 -38.019531 -12.390625 -38.21875 C -12.773438 -38.425781 -12.96875 -38.785156 -12.96875 -39.296875 C -12.96875 -39.660156 -12.8125 -39.929688 -12.5 -40.109375 C -12.195312 -40.296875 -11.835938 -40.414062 -11.421875 -40.46875 C -11.015625 -40.519531 -10.59375 -40.519531 -10.15625 -40.46875 C -9.71875 -40.414062 -9.34375 -40.335938 -9.03125 -40.234375 C -8.875 -40.078125 -8.847656 -39.894531 -8.953125 -39.6875 C -9.054688 -39.476562 -9.109375 -39.347656 -9.109375 -39.296875 C -6.429688 -39.453125 -3.726562 -39.695312 -1 -40.03125 C 1.726562 -40.375 4.484375 -40.644531 7.265625 -40.84375 C 8.546875 -42.644531 9.957031 -44.523438 11.5 -46.484375 C 13.050781 -48.441406 14.800781 -50.140625 16.75 -51.578125 C 17.375 -51.992188 18.070312 -52.445312 18.84375 -52.9375 C 19.613281 -53.425781 20.4375 -53.671875 21.3125 -53.671875 C 22.695312 -53.671875 23.316406 -52.894531 23.171875 -51.34375 C 23.066406 -50.414062 22.78125 -49.515625 22.3125 -48.640625 C 21.851562 -47.765625 21.390625 -46.941406 20.921875 -46.171875 C 20.410156 -45.347656 19.910156 -44.578125 19.421875 -43.859375 C 18.929688 -43.140625 18.453125 -42.445312 17.984375 -41.78125 Z M 17.296875 -50.5 C 15.648438 -49.21875 14.117188 -47.738281 12.703125 -46.0625 C 11.285156 -44.382812 10.0625 -42.722656 9.03125 -41.078125 C 10.269531 -41.179688 11.519531 -41.269531 12.78125 -41.34375 C 14.039062 -41.425781 15.316406 -41.519531 16.609375 -41.625 C 17.378906 -42.707031 18.160156 -43.828125 18.953125 -44.984375 C 19.753906 -46.140625 20.488281 -47.335938 21.15625 -48.578125 C 21.414062 -49.140625 21.671875 -49.738281 21.921875 -50.375 C 22.179688 -51.019531 22.234375 -51.707031 22.078125 -52.4375 C 21.203125 -52.632812 20.335938 -52.476562 19.484375 -51.96875 C 18.640625 -51.457031 17.910156 -50.96875 17.296875 -50.5 Z M 8.34375 -40 C 6.84375 -37.582031 5.460938 -35.0625 4.203125 -32.4375 C 2.941406 -29.8125 1.820312 -27.03125 0.84375 -24.09375 C 3.519531 -26.507812 6.09375 -29.109375 8.5625 -31.890625 C 11.039062 -34.671875 13.410156 -37.53125 15.671875 -40.46875 C 15.671875 -40.519531 15.644531 -40.546875 15.59375 -40.546875 C 14.414062 -40.441406 13.207031 -40.347656 11.96875 -40.265625 C 10.726562 -40.191406 9.519531 -40.101562 8.34375 -40 Z M 8.34375 -40 "/></g></g></g><g fill="#57484f" fill-opacity="1"><g transform="translate(92.148157, 80.313761)"><g><path d="M 2.234375 -24.703125 C 2.753906 -24.804688 3.320312 -24.859375 3.9375 -24.859375 C 4.550781 -24.859375 4.9375 -24.628906 5.09375 -24.171875 C 5.09375 -23.296875 4.925781 -22.457031 4.59375 -21.65625 C 4.257812 -20.863281 3.882812 -20.078125 3.46875 -19.296875 C 3.0625 -18.523438 2.703125 -17.726562 2.390625 -16.90625 C 2.085938 -16.082031 1.984375 -15.207031 2.078125 -14.28125 C 2.753906 -14.28125 3.375 -14.4375 3.9375 -14.75 C 4.5 -15.0625 5.039062 -15.394531 5.5625 -15.75 C 7.050781 -16.78125 8.476562 -17.882812 9.84375 -19.0625 C 11.207031 -20.25 12.632812 -21.359375 14.125 -22.390625 C 14.382812 -22.597656 14.71875 -22.878906 15.125 -23.234375 C 15.539062 -23.597656 15.941406 -23.921875 16.328125 -24.203125 C 16.710938 -24.484375 17.070312 -24.675781 17.40625 -24.78125 C 17.75 -24.882812 17.992188 -24.832031 18.140625 -24.625 C 18.140625 -24.375 18.023438 -24.195312 17.796875 -24.09375 C 17.566406 -23.988281 17.375 -23.882812 17.21875 -23.78125 C 16.03125 -23.0625 14.84375 -22.1875 13.65625 -21.15625 C 12.476562 -20.125 11.285156 -19.09375 10.078125 -18.0625 C 8.867188 -17.039062 7.644531 -16.09375 6.40625 -15.21875 C 5.175781 -14.34375 3.941406 -13.671875 2.703125 -13.203125 C 2.140625 -13.148438 1.675781 -13.253906 1.3125 -13.515625 C 0.894531 -14.128906 0.765625 -14.847656 0.921875 -15.671875 C 1.078125 -16.492188 1.347656 -17.367188 1.734375 -18.296875 C 2.117188 -19.222656 2.539062 -20.132812 3 -21.03125 C 3.46875 -21.9375 3.78125 -22.75 3.9375 -23.46875 C 3.53125 -23.414062 3.039062 -23.351562 2.46875 -23.28125 C 1.90625 -23.207031 1.363281 -23.179688 0.84375 -23.203125 C 0.332031 -23.234375 -0.125 -23.335938 -0.53125 -23.515625 C -0.945312 -23.691406 -1.234375 -24.015625 -1.390625 -24.484375 C -1.546875 -25.503906 -1.257812 -26.488281 -0.53125 -27.4375 C 0.1875 -28.394531 0.90625 -29.082031 1.625 -29.5 C 2.03125 -29.757812 2.4375 -29.898438 2.84375 -29.921875 C 3.257812 -29.941406 3.648438 -29.75 4.015625 -29.34375 C 4.171875 -28.832031 4.207031 -28.367188 4.125 -27.953125 C 4.050781 -27.535156 3.910156 -27.132812 3.703125 -26.75 C 3.492188 -26.363281 3.25 -26.003906 2.96875 -25.671875 C 2.6875 -25.335938 2.441406 -25.015625 2.234375 -24.703125 Z M 0.15625 -25.015625 C 0.3125 -24.804688 0.566406 -24.703125 0.921875 -24.703125 C 1.390625 -25.273438 1.867188 -25.84375 2.359375 -26.40625 C 2.847656 -26.976562 3.09375 -27.703125 3.09375 -28.578125 L 2.9375 -28.578125 C 2.3125 -28.109375 1.726562 -27.613281 1.1875 -27.09375 C 0.65625 -26.582031 0.3125 -25.890625 0.15625 -25.015625 Z M 0.15625 -25.015625 "/></g></g></g><g fill="#57484f" fill-opacity="1"><g transform="translate(108.900314, 80.313761)"><g><path d="M -1.234375 -16.0625 C -0.515625 -16.007812 0.148438 -16.160156 0.765625 -16.515625 C 1.390625 -16.878906 1.984375 -17.242188 2.546875 -17.609375 C 3.941406 -18.484375 5.304688 -19.410156 6.640625 -20.390625 C 7.984375 -21.367188 9.398438 -22.269531 10.890625 -23.09375 C 11.148438 -23.195312 11.457031 -23.347656 11.8125 -23.546875 C 12.175781 -23.753906 12.484375 -23.726562 12.734375 -23.46875 C 12.679688 -23.113281 12.460938 -22.867188 12.078125 -22.734375 C 11.691406 -22.609375 11.375 -22.46875 11.125 -22.3125 C 9.625 -21.488281 8.175781 -20.570312 6.78125 -19.5625 C 5.394531 -18.5625 4.007812 -17.597656 2.625 -16.671875 C 2.0625 -16.316406 1.457031 -15.957031 0.8125 -15.59375 C 0.164062 -15.238281 -0.539062 -15.035156 -1.3125 -14.984375 C -1.925781 -15.191406 -2.335938 -15.550781 -2.546875 -16.0625 C -2.753906 -16.570312 -2.816406 -17.160156 -2.734375 -17.828125 C -2.660156 -18.503906 -2.507812 -19.1875 -2.28125 -19.875 C -2.050781 -20.570312 -1.804688 -21.207031 -1.546875 -21.78125 C -1.335938 -22.132812 -1.15625 -22.453125 -1 -22.734375 C -0.84375 -23.023438 -0.664062 -23.347656 -0.46875 -23.703125 C -0.257812 -24.015625 -0.0234375 -24.375 0.234375 -24.78125 C 0.492188 -25.195312 0.773438 -25.40625 1.078125 -25.40625 C 1.335938 -25.457031 1.546875 -25.390625 1.703125 -25.203125 C 1.859375 -25.023438 1.9375 -24.859375 1.9375 -24.703125 C 1.976562 -24.296875 1.832031 -23.9375 1.5 -23.625 C 1.164062 -23.320312 0.921875 -23.039062 0.765625 -22.78125 C 0.515625 -22.46875 0.3125 -22.101562 0.15625 -21.6875 C 0 -21.28125 -0.179688 -20.847656 -0.390625 -20.390625 C -0.492188 -20.128906 -0.632812 -19.804688 -0.8125 -19.421875 C -0.988281 -19.035156 -1.140625 -18.632812 -1.265625 -18.21875 C -1.398438 -17.8125 -1.476562 -17.414062 -1.5 -17.03125 C -1.53125 -16.644531 -1.441406 -16.320312 -1.234375 -16.0625 Z M 4.484375 -31.421875 C 3.960938 -31.160156 3.535156 -30.796875 3.203125 -30.328125 C 2.867188 -29.867188 2.394531 -29.566406 1.78125 -29.421875 C 1.726562 -29.472656 1.648438 -29.5 1.546875 -29.5 C 1.390625 -29.851562 1.398438 -30.144531 1.578125 -30.375 C 1.765625 -30.613281 1.960938 -30.804688 2.171875 -30.953125 C 2.523438 -31.421875 2.910156 -31.8125 3.328125 -32.125 C 3.679688 -32.425781 4.101562 -32.804688 4.59375 -33.265625 C 5.082031 -33.734375 5.535156 -34.097656 5.953125 -34.359375 C 6.054688 -34.460938 6.222656 -34.472656 6.453125 -34.390625 C 6.679688 -34.316406 6.820312 -34.148438 6.875 -33.890625 C 6.925781 -33.585938 6.796875 -33.332031 6.484375 -33.125 C 6.179688 -32.914062 5.925781 -32.734375 5.71875 -32.578125 Z M 4.484375 -31.421875 "/></g></g></g><g fill="#57484f" fill-opacity="1"><g transform="translate(121.174926, 80.313761)"><g><path d="M 7.265625 -28.578125 C 6.484375 -28.523438 5.875 -28.316406 5.4375 -27.953125 C 5 -27.585938 4.550781 -27.226562 4.09375 -26.875 C 3.582031 -26.351562 3.015625 -25.757812 2.390625 -25.09375 C 1.773438 -24.425781 1.179688 -23.691406 0.609375 -22.890625 C 0.046875 -22.097656 -0.425781 -21.238281 -0.8125 -20.3125 C -1.195312 -19.382812 -1.390625 -18.429688 -1.390625 -17.453125 C -1.390625 -16.835938 -1.257812 -16.234375 -1 -15.640625 C -0.75 -15.046875 -0.335938 -14.617188 0.234375 -14.359375 C 1.410156 -14.003906 2.488281 -14.046875 3.46875 -14.484375 C 4.445312 -14.921875 5.347656 -15.421875 6.171875 -15.984375 C 7.828125 -17.015625 9.140625 -17.941406 10.109375 -18.765625 C 11.085938 -19.585938 12.25 -20.488281 13.59375 -21.46875 C 13.851562 -21.726562 14.132812 -21.957031 14.4375 -22.15625 C 14.75 -22.363281 15.082031 -22.597656 15.4375 -22.859375 C 15.695312 -23.117188 15.976562 -23.375 16.28125 -23.625 C 16.59375 -23.882812 16.957031 -23.988281 17.375 -23.9375 C 17.476562 -23.625 17.4375 -23.378906 17.25 -23.203125 C 17.070312 -23.023438 16.90625 -22.882812 16.75 -22.78125 C 14.695312 -21.238281 12.84375 -19.796875 11.1875 -18.453125 C 9.539062 -17.117188 8.035156 -15.988281 6.671875 -15.0625 C 5.316406 -14.132812 4.070312 -13.488281 2.9375 -13.125 C 1.800781 -12.769531 0.691406 -12.796875 -0.390625 -13.203125 C -1.722656 -13.972656 -2.46875 -15.285156 -2.625 -17.140625 C -2.726562 -18.835938 -2.394531 -20.328125 -1.625 -21.609375 C -0.851562 -22.898438 -0.101562 -24.035156 0.625 -25.015625 C 1.445312 -26.046875 2.332031 -27.007812 3.28125 -27.90625 C 4.226562 -28.8125 5.375 -29.492188 6.71875 -29.953125 C 6.769531 -29.953125 6.796875 -29.960938 6.796875 -29.984375 C 6.796875 -30.015625 6.820312 -30.03125 6.875 -30.03125 C 7.132812 -30.03125 7.335938 -30.015625 7.484375 -29.984375 C 7.640625 -29.960938 7.796875 -29.929688 7.953125 -29.890625 C 8.515625 -29.578125 8.769531 -29.070312 8.71875 -28.375 C 8.675781 -27.675781 8.523438 -26.992188 8.265625 -26.328125 C 8.109375 -26.023438 7.925781 -25.742188 7.71875 -25.484375 C 7.507812 -25.222656 7.359375 -24.960938 7.265625 -24.703125 C 7.160156 -24.453125 7.054688 -24.132812 6.953125 -23.75 C 6.847656 -23.363281 6.535156 -23.21875 6.015625 -23.3125 C 5.710938 -23.363281 5.535156 -23.503906 5.484375 -23.734375 C 5.429688 -23.972656 5.441406 -24.21875 5.515625 -24.46875 C 5.597656 -24.726562 5.703125 -24.988281 5.828125 -25.25 C 5.953125 -25.507812 6.09375 -25.691406 6.25 -25.796875 C 6.457031 -26.253906 6.664062 -26.6875 6.875 -27.09375 C 7.082031 -27.507812 7.210938 -28.003906 7.265625 -28.578125 Z M 7.265625 -28.578125 "/></g></g></g><g fill="#57484f" fill-opacity="1"><g transform="translate(137.927083, 80.313761)"><g><path d="M 3.09375 -30.03125 C 3.394531 -30.082031 3.632812 -30.03125 3.8125 -29.875 C 4 -29.726562 4.117188 -29.535156 4.171875 -29.296875 C 4.222656 -29.066406 4.195312 -28.847656 4.09375 -28.640625 C 3.988281 -28.441406 3.804688 -28.34375 3.546875 -28.34375 C 3.140625 -28.34375 2.859375 -28.570312 2.703125 -29.03125 C 2.546875 -29.5 2.675781 -29.832031 3.09375 -30.03125 Z M -1.234375 -16.0625 C -0.515625 -16.007812 0.148438 -16.160156 0.765625 -16.515625 C 1.390625 -16.878906 1.984375 -17.242188 2.546875 -17.609375 C 3.941406 -18.484375 5.304688 -19.410156 6.640625 -20.390625 C 7.984375 -21.367188 9.398438 -22.269531 10.890625 -23.09375 C 11.148438 -23.195312 11.457031 -23.347656 11.8125 -23.546875 C 12.175781 -23.753906 12.484375 -23.726562 12.734375 -23.46875 C 12.679688 -23.113281 12.460938 -22.867188 12.078125 -22.734375 C 11.691406 -22.609375 11.375 -22.46875 11.125 -22.3125 C 9.625 -21.488281 8.175781 -20.570312 6.78125 -19.5625 C 5.394531 -18.5625 4.007812 -17.597656 2.625 -16.671875 C 2.0625 -16.316406 1.457031 -15.957031 0.8125 -15.59375 C 0.164062 -15.238281 -0.539062 -15.035156 -1.3125 -14.984375 C -1.925781 -15.191406 -2.335938 -15.550781 -2.546875 -16.0625 C -2.753906 -16.570312 -2.816406 -17.160156 -2.734375 -17.828125 C -2.660156 -18.503906 -2.507812 -19.1875 -2.28125 -19.875 C -2.050781 -20.570312 -1.804688 -21.207031 -1.546875 -21.78125 C -1.335938 -22.132812 -1.15625 -22.453125 -1 -22.734375 C -0.84375 -23.023438 -0.664062 -23.347656 -0.46875 -23.703125 C -0.257812 -24.015625 -0.0234375 -24.375 0.234375 -24.78125 C 0.492188 -25.195312 0.773438 -25.40625 1.078125 -25.40625 C 1.335938 -25.457031 1.546875 -25.390625 1.703125 -25.203125 C 1.859375 -25.023438 1.9375 -24.859375 1.9375 -24.703125 C 1.976562 -24.296875 1.832031 -23.9375 1.5 -23.625 C 1.164062 -23.320312 0.921875 -23.039062 0.765625 -22.78125 C 0.515625 -22.46875 0.3125 -22.101562 0.15625 -21.6875 C 0 -21.28125 -0.179688 -20.847656 -0.390625 -20.390625 C -0.492188 -20.128906 -0.632812 -19.804688 -0.8125 -19.421875 C -0.988281 -19.035156 -1.140625 -18.632812 -1.265625 -18.21875 C -1.398438 -17.8125 -1.476562 -17.414062 -1.5 -17.03125 C -1.53125 -16.644531 -1.441406 -16.320312 -1.234375 -16.0625 Z M -1.234375 -16.0625 "/></g></g></g><g fill="#57484f" fill-opacity="1"><g transform="translate(150.201696, 80.313761)"><g><path d="M 5.09375 -25.015625 C 5.195312 -25.015625 5.3125 -25.050781 5.4375 -25.125 C 5.570312 -25.207031 5.742188 -25.222656 5.953125 -25.171875 C 6.148438 -24.960938 6.273438 -24.703125 6.328125 -24.390625 C 6.378906 -24.085938 6.390625 -23.753906 6.359375 -23.390625 C 6.335938 -23.035156 6.300781 -22.648438 6.25 -22.234375 C 6.195312 -21.828125 6.171875 -21.441406 6.171875 -21.078125 C 6.171875 -20.203125 6.429688 -19.613281 6.953125 -19.3125 C 8.128906 -19.207031 9.179688 -19.375 10.109375 -19.8125 C 11.035156 -20.25 11.910156 -20.695312 12.734375 -21.15625 C 13.515625 -21.625 14.144531 -22.035156 14.625 -22.390625 C 15.113281 -22.753906 15.488281 -23.050781 15.75 -23.28125 C 16.007812 -23.507812 16.21875 -23.648438 16.375 -23.703125 C 16.53125 -23.753906 16.679688 -23.675781 16.828125 -23.46875 C 16.828125 -23.21875 16.738281 -23.015625 16.5625 -22.859375 C 16.382812 -22.703125 16.21875 -22.546875 16.0625 -22.390625 C 15.90625 -22.285156 15.738281 -22.15625 15.5625 -22 C 15.382812 -21.851562 15.191406 -21.726562 14.984375 -21.625 C 14.671875 -21.363281 14.320312 -21.117188 13.9375 -20.890625 C 13.550781 -20.660156 13.175781 -20.414062 12.8125 -20.15625 C 12.351562 -19.945312 11.878906 -19.726562 11.390625 -19.5 C 10.898438 -19.269531 10.394531 -19.050781 9.875 -18.84375 C 9.363281 -18.632812 8.820312 -18.488281 8.25 -18.40625 C 7.6875 -18.332031 7.070312 -18.347656 6.40625 -18.453125 C 5.632812 -18.816406 5.222656 -19.578125 5.171875 -20.734375 C 5.117188 -21.890625 5.195312 -22.957031 5.40625 -23.9375 C 5.144531 -23.78125 4.875 -23.535156 4.59375 -23.203125 C 4.3125 -22.867188 4.039062 -22.546875 3.78125 -22.234375 C 3.375 -21.929688 2.988281 -21.570312 2.625 -21.15625 C 2.257812 -20.75 1.859375 -20.335938 1.421875 -19.921875 C 0.984375 -19.515625 0.53125 -19.15625 0.0625 -18.84375 C -0.394531 -18.53125 -0.90625 -18.375 -1.46875 -18.375 C -1.675781 -18.476562 -1.929688 -18.6875 -2.234375 -19 C -2.390625 -20.082031 -2.222656 -21.070312 -1.734375 -21.96875 C -1.242188 -22.863281 -0.71875 -23.726562 -0.15625 -24.5625 C 0.363281 -25.226562 0.90625 -25.851562 1.46875 -26.4375 C 2.03125 -27.03125 2.671875 -27.457031 3.390625 -27.71875 C 3.910156 -27.925781 4.425781 -27.925781 4.9375 -27.71875 C 5.039062 -27.613281 5.117188 -27.507812 5.171875 -27.40625 C 5.222656 -27.3125 5.300781 -27.210938 5.40625 -27.109375 C 5.507812 -26.691406 5.507812 -26.316406 5.40625 -25.984375 C 5.300781 -25.648438 5.195312 -25.328125 5.09375 -25.015625 Z M -0.6875 -20.078125 C -0.125 -20.335938 0.359375 -20.644531 0.765625 -21 C 1.179688 -21.363281 1.59375 -21.75 2 -22.15625 C 1.90625 -22.363281 1.859375 -22.546875 1.859375 -22.703125 C 2.160156 -23.265625 2.503906 -23.800781 2.890625 -24.3125 C 3.273438 -24.832031 3.519531 -25.453125 3.625 -26.171875 C 2.695312 -25.347656 1.847656 -24.457031 1.078125 -23.5 C 0.304688 -22.550781 -0.28125 -21.410156 -0.6875 -20.078125 Z M -0.6875 -20.078125 "/></g></g></g><g fill="#57484f" fill-opacity="1"><g transform="translate(166.477925, 80.313761)"><g/></g></g><g fill="#57484f" fill-opacity="1"><g transform="translate(186.395234, 80.313761)"><g/></g></g><g fill="#57484f" fill-opacity="1"><g transform="translate(206.29991, 80.313761)"><g><path d="M 39.609375 -51.421875 C 43.929688 -51.941406 48.535156 -52.421875 53.421875 -52.859375 C 58.316406 -53.296875 63.316406 -53.332031 68.421875 -52.96875 C 69.859375 -52.863281 71.398438 -52.710938 73.046875 -52.515625 C 73.710938 -52.359375 74.40625 -52.160156 75.125 -51.921875 C 75.851562 -51.691406 76.269531 -51.269531 76.375 -50.65625 C 76.425781 -50.289062 76.347656 -50.03125 76.140625 -49.875 C 75.929688 -49.726562 75.75 -49.523438 75.59375 -49.265625 C 75.4375 -49.160156 75.226562 -49.03125 74.96875 -48.875 C 74.71875 -48.71875 74.460938 -48.769531 74.203125 -49.03125 C 74.148438 -49.5 74.28125 -49.769531 74.59375 -49.84375 C 74.90625 -49.914062 75.113281 -50.132812 75.21875 -50.5 C 74.488281 -50.96875 73.300781 -51.289062 71.65625 -51.46875 C 70.007812 -51.644531 68.242188 -51.757812 66.359375 -51.8125 C 64.484375 -51.863281 62.671875 -51.863281 60.921875 -51.8125 C 59.171875 -51.757812 57.882812 -51.707031 57.0625 -51.65625 C 53.875 -51.550781 50.757812 -51.34375 47.71875 -51.03125 C 44.6875 -50.726562 41.753906 -50.367188 38.921875 -49.953125 C 36.453125 -44.960938 34.109375 -39.96875 31.890625 -34.96875 C 29.679688 -29.976562 27.390625 -24.988281 25.015625 -20 C 22.703125 -15.007812 20.410156 -10.003906 18.140625 -4.984375 C 15.878906 0.0351562 13.742188 5.195312 11.734375 10.5 C 11.835938 10.601562 12.003906 10.65625 12.234375 10.65625 C 12.472656 10.65625 12.59375 10.785156 12.59375 11.046875 C 12.632812 11.453125 12.515625 11.769531 12.234375 12 C 11.953125 12.238281 11.734375 12.484375 11.578125 12.734375 C 11.378906 12.992188 11.148438 13.238281 10.890625 13.46875 C 10.628906 13.707031 10.269531 13.773438 9.8125 13.671875 C 9.5 13.410156 9.394531 13.035156 9.5 12.546875 C 9.601562 12.054688 9.734375 11.679688 9.890625 11.421875 C 11.691406 6.535156 13.8125 1.3125 16.25 -4.25 C 18.695312 -9.8125 21.207031 -15.332031 23.78125 -20.8125 C 26.351562 -26.289062 28.847656 -31.523438 31.265625 -36.515625 C 33.691406 -41.515625 35.753906 -45.921875 37.453125 -49.734375 C 31.484375 -48.960938 25.726562 -47.957031 20.1875 -46.71875 C 14.65625 -45.476562 9.082031 -44.191406 3.46875 -42.859375 C 2.1875 -42.546875 0.8125 -42.207031 -0.65625 -41.84375 C -2.125 -41.488281 -3.65625 -41.335938 -5.25 -41.390625 C -5.71875 -41.390625 -6.179688 -41.425781 -6.640625 -41.5 C -7.097656 -41.582031 -7.40625 -41.851562 -7.5625 -42.3125 C -7.664062 -42.9375 -7.507812 -43.398438 -7.09375 -43.703125 C -6.6875 -44.015625 -6.253906 -44.300781 -5.796875 -44.5625 C -5.222656 -44.8125 -4.535156 -45.078125 -3.734375 -45.359375 C -2.941406 -45.648438 -2.117188 -45.84375 -1.265625 -45.9375 C -0.421875 -46.039062 0.410156 -46.054688 1.234375 -45.984375 C 2.054688 -45.910156 2.773438 -45.640625 3.390625 -45.171875 C 3.492188 -45.015625 3.492188 -44.847656 3.390625 -44.671875 C 3.296875 -44.492188 3.25 -44.378906 3.25 -44.328125 C 8.851562 -45.660156 14.523438 -46.921875 20.265625 -48.109375 C 26.003906 -49.296875 31.9375 -50.328125 38.0625 -51.203125 C 38.476562 -52.078125 38.878906 -53 39.265625 -53.96875 C 39.648438 -54.945312 40.050781 -55.898438 40.46875 -56.828125 C 40.207031 -57.242188 40.164062 -57.722656 40.34375 -58.265625 C 40.519531 -58.804688 40.84375 -59.078125 41.3125 -59.078125 C 41.570312 -59.078125 41.816406 -58.984375 42.046875 -58.796875 C 42.273438 -58.617188 42.414062 -58.425781 42.46875 -58.21875 C 42.519531 -57.914062 42.453125 -57.59375 42.265625 -57.25 C 42.085938 -56.914062 41.953125 -56.625 41.859375 -56.375 C 41.492188 -55.601562 41.101562 -54.738281 40.6875 -53.78125 C 40.28125 -52.832031 39.921875 -52.046875 39.609375 -51.421875 Z M -5.796875 -42.9375 C -4.242188 -42.832031 -2.796875 -42.929688 -1.453125 -43.234375 C -0.117188 -43.546875 1.1875 -43.859375 2.46875 -44.171875 C 1.03125 -44.628906 -0.445312 -44.675781 -1.96875 -44.3125 C -3.488281 -43.957031 -4.765625 -43.5 -5.796875 -42.9375 Z M -5.796875 -42.9375 "/></g></g></g><g fill="#57484f" fill-opacity="1"><g transform="translate(245.285334, 80.313761)"><g><path d="M 3.09375 -30.03125 C 3.394531 -30.082031 3.632812 -30.03125 3.8125 -29.875 C 4 -29.726562 4.117188 -29.535156 4.171875 -29.296875 C 4.222656 -29.066406 4.195312 -28.847656 4.09375 -28.640625 C 3.988281 -28.441406 3.804688 -28.34375 3.546875 -28.34375 C 3.140625 -28.34375 2.859375 -28.570312 2.703125 -29.03125 C 2.546875 -29.5 2.675781 -29.832031 3.09375 -30.03125 Z M -1.234375 -16.0625 C -0.515625 -16.007812 0.148438 -16.160156 0.765625 -16.515625 C 1.390625 -16.878906 1.984375 -17.242188 2.546875 -17.609375 C 3.941406 -18.484375 5.304688 -19.410156 6.640625 -20.390625 C 7.984375 -21.367188 9.398438 -22.269531 10.890625 -23.09375 C 11.148438 -23.195312 11.457031 -23.347656 11.8125 -23.546875 C 12.175781 -23.753906 12.484375 -23.726562 12.734375 -23.46875 C 12.679688 -23.113281 12.460938 -22.867188 12.078125 -22.734375 C 11.691406 -22.609375 11.375 -22.46875 11.125 -22.3125 C 9.625 -21.488281 8.175781 -20.570312 6.78125 -19.5625 C 5.394531 -18.5625 4.007812 -17.597656 2.625 -16.671875 C 2.0625 -16.316406 1.457031 -15.957031 0.8125 -15.59375 C 0.164062 -15.238281 -0.539062 -15.035156 -1.3125 -14.984375 C -1.925781 -15.191406 -2.335938 -15.550781 -2.546875 -16.0625 C -2.753906 -16.570312 -2.816406 -17.160156 -2.734375 -17.828125 C -2.660156 -18.503906 -2.507812 -19.1875 -2.28125 -19.875 C -2.050781 -20.570312 -1.804688 -21.207031 -1.546875 -21.78125 C -1.335938 -22.132812 -1.15625 -22.453125 -1 -22.734375 C -0.84375 -23.023438 -0.664062 -23.347656 -0.46875 -23.703125 C -0.257812 -24.015625 -0.0234375 -24.375 0.234375 -24.78125 C 0.492188 -25.195312 0.773438 -25.40625 1.078125 -25.40625 C 1.335938 -25.457031 1.546875 -25.390625 1.703125 -25.203125 C 1.859375 -25.023438 1.9375 -24.859375 1.9375 -24.703125 C 1.976562 -24.296875 1.832031 -23.9375 1.5 -23.625 C 1.164062 -23.320312 0.921875 -23.039062 0.765625 -22.78125 C 0.515625 -22.46875 0.3125 -22.101562 0.15625 -21.6875 C 0 -21.28125 -0.179688 -20.847656 -0.390625 -20.390625 C -0.492188 -20.128906 -0.632812 -19.804688 -0.8125 -19.421875 C -0.988281 -19.035156 -1.140625 -18.632812 -1.265625 -18.21875 C -1.398438 -17.8125 -1.476562 -17.414062 -1.5 -17.03125 C -1.53125 -16.644531 -1.441406 -16.320312 -1.234375 -16.0625 Z M -1.234375 -16.0625 "/></g></g></g><g fill="#57484f" fill-opacity="1"><g transform="translate(257.559946, 80.313761)"><g><path d="M 2.234375 -24.703125 C 2.753906 -24.804688 3.320312 -24.859375 3.9375 -24.859375 C 4.550781 -24.859375 4.9375 -24.628906 5.09375 -24.171875 C 5.09375 -23.296875 4.925781 -22.457031 4.59375 -21.65625 C 4.257812 -20.863281 3.882812 -20.078125 3.46875 -19.296875 C 3.0625 -18.523438 2.703125 -17.726562 2.390625 -16.90625 C 2.085938 -16.082031 1.984375 -15.207031 2.078125 -14.28125 C 2.753906 -14.28125 3.375 -14.4375 3.9375 -14.75 C 4.5 -15.0625 5.039062 -15.394531 5.5625 -15.75 C 7.050781 -16.78125 8.476562 -17.882812 9.84375 -19.0625 C 11.207031 -20.25 12.632812 -21.359375 14.125 -22.390625 C 14.382812 -22.597656 14.71875 -22.878906 15.125 -23.234375 C 15.539062 -23.597656 15.941406 -23.921875 16.328125 -24.203125 C 16.710938 -24.484375 17.070312 -24.675781 17.40625 -24.78125 C 17.75 -24.882812 17.992188 -24.832031 18.140625 -24.625 C 18.140625 -24.375 18.023438 -24.195312 17.796875 -24.09375 C 17.566406 -23.988281 17.375 -23.882812 17.21875 -23.78125 C 16.03125 -23.0625 14.84375 -22.1875 13.65625 -21.15625 C 12.476562 -20.125 11.285156 -19.09375 10.078125 -18.0625 C 8.867188 -17.039062 7.644531 -16.09375 6.40625 -15.21875 C 5.175781 -14.34375 3.941406 -13.671875 2.703125 -13.203125 C 2.140625 -13.148438 1.675781 -13.253906 1.3125 -13.515625 C 0.894531 -14.128906 0.765625 -14.847656 0.921875 -15.671875 C 1.078125 -16.492188 1.347656 -17.367188 1.734375 -18.296875 C 2.117188 -19.222656 2.539062 -20.132812 3 -21.03125 C 3.46875 -21.9375 3.78125 -22.75 3.9375 -23.46875 C 3.53125 -23.414062 3.039062 -23.351562 2.46875 -23.28125 C 1.90625 -23.207031 1.363281 -23.179688 0.84375 -23.203125 C 0.332031 -23.234375 -0.125 -23.335938 -0.53125 -23.515625 C -0.945312 -23.691406 -1.234375 -24.015625 -1.390625 -24.484375 C -1.546875 -25.503906 -1.257812 -26.488281 -0.53125 -27.4375 C 0.1875 -28.394531 0.90625 -29.082031 1.625 -29.5 C 2.03125 -29.757812 2.4375 -29.898438 2.84375 -29.921875 C 3.257812 -29.941406 3.648438 -29.75 4.015625 -29.34375 C 4.171875 -28.832031 4.207031 -28.367188 4.125 -27.953125 C 4.050781 -27.535156 3.910156 -27.132812 3.703125 -26.75 C 3.492188 -26.363281 3.25 -26.003906 2.96875 -25.671875 C 2.6875 -25.335938 2.441406 -25.015625 2.234375 -24.703125 Z M 0.15625 -25.015625 C 0.3125 -24.804688 0.566406 -24.703125 0.921875 -24.703125 C 1.390625 -25.273438 1.867188 -25.84375 2.359375 -26.40625 C 2.847656 -26.976562 3.09375 -27.703125 3.09375 -28.578125 L 2.9375 -28.578125 C 2.3125 -28.109375 1.726562 -27.613281 1.1875 -27.09375 C 0.65625 -26.582031 0.3125 -25.890625 0.15625 -25.015625 Z M 0.15625 -25.015625 "/></g></g></g><g fill="#57484f" fill-opacity="1"><g transform="translate(274.312104, 80.313761)"><g><path d="M 3.015625 -22.78125 C 4.660156 -22.21875 6.359375 -22.128906 8.109375 -22.515625 C 9.859375 -22.898438 11.375 -23.347656 12.65625 -23.859375 C 12.8125 -23.960938 13.003906 -24.050781 13.234375 -24.125 C 13.472656 -24.207031 13.644531 -24.117188 13.75 -23.859375 C 13.695312 -23.453125 13.488281 -23.207031 13.125 -23.125 C 12.769531 -23.050781 12.460938 -22.9375 12.203125 -22.78125 C 11.015625 -22.21875 9.554688 -21.789062 7.828125 -21.5 C 6.109375 -21.21875 4.476562 -21.285156 2.9375 -21.703125 C 2.726562 -21.023438 2.507812 -20.390625 2.28125 -19.796875 C 2.050781 -19.210938 1.726562 -18.660156 1.3125 -18.140625 C 1 -17.679688 0.609375 -17.234375 0.140625 -16.796875 C -0.316406 -16.359375 -0.957031 -16.140625 -1.78125 -16.140625 L -2.234375 -16.375 C -2.492188 -16.53125 -2.703125 -16.835938 -2.859375 -17.296875 C -2.859375 -18.273438 -2.675781 -19.1875 -2.3125 -20.03125 C -1.957031 -20.882812 -1.570312 -21.695312 -1.15625 -22.46875 C -0.75 -23.1875 -0.328125 -23.894531 0.109375 -24.59375 C 0.546875 -25.289062 1.050781 -25.894531 1.625 -26.40625 C 1.78125 -26.5625 2.0625 -26.742188 2.46875 -26.953125 C 2.78125 -27.003906 3 -26.953125 3.125 -26.796875 C 3.257812 -26.640625 3.375 -26.457031 3.46875 -26.25 C 3.414062 -25.84375 3.3125 -25.484375 3.15625 -25.171875 C 3.007812 -24.859375 2.859375 -24.550781 2.703125 -24.25 C 2.910156 -23.882812 3.015625 -23.394531 3.015625 -22.78125 Z M -1.390625 -17.6875 C -0.566406 -17.882812 0.164062 -18.5 0.8125 -19.53125 C 1.457031 -20.5625 1.753906 -21.515625 1.703125 -22.390625 C 1.597656 -22.390625 1.519531 -22.300781 1.46875 -22.125 C 1.414062 -21.945312 1.285156 -21.859375 1.078125 -21.859375 C 0.722656 -21.859375 0.546875 -22.0625 0.546875 -22.46875 C 0.128906 -21.75 -0.269531 -21.03125 -0.65625 -20.3125 C -1.039062 -19.59375 -1.285156 -18.71875 -1.390625 -17.6875 Z M -1.390625 -17.6875 "/></g></g></g><g fill="#57484f" fill-opacity="1"><g transform="translate(287.281505, 80.313761)"><g><path d="M 0.84375 -22.859375 C -0.539062 -19.203125 -1.476562 -15.765625 -1.96875 -12.546875 C -2.457031 -9.328125 -2.484375 -6.609375 -2.046875 -4.390625 C -1.609375 -2.179688 -0.695312 -0.664062 0.6875 0.15625 C 2.082031 0.976562 3.988281 0.820312 6.40625 -0.3125 C 7.332031 -0.71875 8.179688 -1.148438 8.953125 -1.609375 C 9.722656 -2.078125 10.472656 -2.597656 11.203125 -3.171875 C 15.367188 -6.097656 19.289062 -9.3125 22.96875 -12.8125 C 26.65625 -16.3125 30.195312 -19.914062 33.59375 -23.625 C 33.75 -23.882812 33.953125 -24.140625 34.203125 -24.390625 C 34.460938 -24.648438 34.800781 -24.726562 35.21875 -24.625 C 35.363281 -24.21875 35.269531 -23.894531 34.9375 -23.65625 C 34.601562 -23.425781 34.359375 -23.1875 34.203125 -22.9375 C 32.398438 -21.082031 30.570312 -19.1875 28.71875 -17.25 C 26.875 -15.320312 24.984375 -13.414062 23.046875 -11.53125 C 21.117188 -9.65625 19.125 -7.851562 17.0625 -6.125 C 15.007812 -4.40625 12.875 -2.828125 10.65625 -1.390625 C 9.625 -0.722656 8.453125 -0.00390625 7.140625 0.765625 C 5.828125 1.546875 4.347656 1.9375 2.703125 1.9375 C 1.054688 1.9375 -0.226562 1.40625 -1.15625 0.34375 C -2.082031 -0.707031 -2.753906 -1.953125 -3.171875 -3.390625 C -3.472656 -4.578125 -3.648438 -5.8125 -3.703125 -7.09375 C -3.753906 -8.382812 -3.726562 -9.671875 -3.625 -10.953125 C -3.519531 -12.242188 -3.335938 -13.492188 -3.078125 -14.703125 C -2.828125 -15.921875 -2.546875 -17.039062 -2.234375 -18.0625 C -2.035156 -18.84375 -1.804688 -19.578125 -1.546875 -20.265625 C -1.285156 -20.960938 -1.078125 -21.671875 -0.921875 -22.390625 C -0.867188 -22.597656 -0.84375 -22.726562 -0.84375 -22.78125 C -0.84375 -22.832031 -0.867188 -22.988281 -0.921875 -23.25 C -0.867188 -23.394531 -0.753906 -23.476562 -0.578125 -23.5 C -0.398438 -23.53125 -0.335938 -23.675781 -0.390625 -23.9375 C 0.796875 -26.875 2.082031 -29.753906 3.46875 -32.578125 C 4.863281 -35.410156 6.382812 -38.164062 8.03125 -40.84375 C 9.675781 -43.519531 11.453125 -46.054688 13.359375 -48.453125 C 15.265625 -50.847656 17.347656 -53.050781 19.609375 -55.0625 C 20.328125 -55.675781 21.085938 -56.316406 21.890625 -56.984375 C 22.691406 -57.648438 23.539062 -58.265625 24.4375 -58.828125 C 25.34375 -59.398438 26.296875 -59.890625 27.296875 -60.296875 C 28.296875 -60.710938 29.335938 -61 30.421875 -61.15625 C 31.660156 -61.257812 32.640625 -61 33.359375 -60.375 C 34.078125 -59.757812 34.488281 -58.914062 34.59375 -57.84375 C 34.695312 -56.550781 34.515625 -55.363281 34.046875 -54.28125 C 33.585938 -53.195312 33.078125 -52.191406 32.515625 -51.265625 C 31.585938 -49.722656 30.476562 -48.128906 29.1875 -46.484375 C 27.90625 -44.835938 26.53125 -43.226562 25.0625 -41.65625 C 23.59375 -40.082031 22.097656 -38.5625 20.578125 -37.09375 C 19.054688 -35.632812 17.628906 -34.3125 16.296875 -33.125 C 13.972656 -31.113281 11.550781 -29.234375 9.03125 -27.484375 C 6.507812 -25.734375 3.78125 -24.191406 0.84375 -22.859375 Z M 20.15625 -38.375 C 22.21875 -40.4375 24.238281 -42.535156 26.21875 -44.671875 C 28.195312 -46.804688 29.929688 -49.160156 31.421875 -51.734375 C 31.941406 -52.609375 32.421875 -53.5625 32.859375 -54.59375 C 33.296875 -55.625 33.488281 -56.753906 33.4375 -57.984375 C 33.332031 -58.296875 33.226562 -58.59375 33.125 -58.875 C 33.019531 -59.15625 32.84375 -59.398438 32.59375 -59.609375 C 32.28125 -59.765625 31.914062 -59.867188 31.5 -59.921875 C 31.09375 -59.972656 30.734375 -59.972656 30.421875 -59.921875 C 29.390625 -59.765625 28.394531 -59.46875 27.4375 -59.03125 C 26.488281 -58.59375 25.585938 -58.078125 24.734375 -57.484375 C 23.890625 -56.890625 23.09375 -56.269531 22.34375 -55.625 C 21.601562 -54.988281 20.925781 -54.390625 20.3125 -53.828125 C 17.476562 -51.148438 14.941406 -48.265625 12.703125 -45.171875 C 10.460938 -42.085938 8.390625 -38.789062 6.484375 -35.28125 C 5.503906 -33.53125 4.578125 -31.726562 3.703125 -29.875 C 2.828125 -28.03125 2.054688 -26.15625 1.390625 -24.25 C 4.941406 -26.207031 8.273438 -28.367188 11.390625 -30.734375 C 14.503906 -33.097656 17.425781 -35.644531 20.15625 -38.375 Z M 20.15625 -38.375 "/></g></g></g><g fill="#57484f" fill-opacity="1"><g transform="translate(321.480591, 80.313761)"><g><path d="M 0.84375 -22.859375 C -0.539062 -19.203125 -1.476562 -15.765625 -1.96875 -12.546875 C -2.457031 -9.328125 -2.484375 -6.609375 -2.046875 -4.390625 C -1.609375 -2.179688 -0.695312 -0.664062 0.6875 0.15625 C 2.082031 0.976562 3.988281 0.820312 6.40625 -0.3125 C 7.332031 -0.71875 8.179688 -1.148438 8.953125 -1.609375 C 9.722656 -2.078125 10.472656 -2.597656 11.203125 -3.171875 C 15.367188 -6.097656 19.289062 -9.3125 22.96875 -12.8125 C 26.65625 -16.3125 30.195312 -19.914062 33.59375 -23.625 C 33.75 -23.882812 33.953125 -24.140625 34.203125 -24.390625 C 34.460938 -24.648438 34.800781 -24.726562 35.21875 -24.625 C 35.363281 -24.21875 35.269531 -23.894531 34.9375 -23.65625 C 34.601562 -23.425781 34.359375 -23.1875 34.203125 -22.9375 C 32.398438 -21.082031 30.570312 -19.1875 28.71875 -17.25 C 26.875 -15.320312 24.984375 -13.414062 23.046875 -11.53125 C 21.117188 -9.65625 19.125 -7.851562 17.0625 -6.125 C 15.007812 -4.40625 12.875 -2.828125 10.65625 -1.390625 C 9.625 -0.722656 8.453125 -0.00390625 7.140625 0.765625 C 5.828125 1.546875 4.347656 1.9375 2.703125 1.9375 C 1.054688 1.9375 -0.226562 1.40625 -1.15625 0.34375 C -2.082031 -0.707031 -2.753906 -1.953125 -3.171875 -3.390625 C -3.472656 -4.578125 -3.648438 -5.8125 -3.703125 -7.09375 C -3.753906 -8.382812 -3.726562 -9.671875 -3.625 -10.953125 C -3.519531 -12.242188 -3.335938 -13.492188 -3.078125 -14.703125 C -2.828125 -15.921875 -2.546875 -17.039062 -2.234375 -18.0625 C -2.035156 -18.84375 -1.804688 -19.578125 -1.546875 -20.265625 C -1.285156 -20.960938 -1.078125 -21.671875 -0.921875 -22.390625 C -0.867188 -22.597656 -0.84375 -22.726562 -0.84375 -22.78125 C -0.84375 -22.832031 -0.867188 -22.988281 -0.921875 -23.25 C -0.867188 -23.394531 -0.753906 -23.476562 -0.578125 -23.5 C -0.398438 -23.53125 -0.335938 -23.675781 -0.390625 -23.9375 C 0.796875 -26.875 2.082031 -29.753906 3.46875 -32.578125 C 4.863281 -35.410156 6.382812 -38.164062 8.03125 -40.84375 C 9.675781 -43.519531 11.453125 -46.054688 13.359375 -48.453125 C 15.265625 -50.847656 17.347656 -53.050781 19.609375 -55.0625 C 20.328125 -55.675781 21.085938 -56.316406 21.890625 -56.984375 C 22.691406 -57.648438 23.539062 -58.265625 24.4375 -58.828125 C 25.34375 -59.398438 26.296875 -59.890625 27.296875 -60.296875 C 28.296875 -60.710938 29.335938 -61 30.421875 -61.15625 C 31.660156 -61.257812 32.640625 -61 33.359375 -60.375 C 34.078125 -59.757812 34.488281 -58.914062 34.59375 -57.84375 C 34.695312 -56.550781 34.515625 -55.363281 34.046875 -54.28125 C 33.585938 -53.195312 33.078125 -52.191406 32.515625 -51.265625 C 31.585938 -49.722656 30.476562 -48.128906 29.1875 -46.484375 C 27.90625 -44.835938 26.53125 -43.226562 25.0625 -41.65625 C 23.59375 -40.082031 22.097656 -38.5625 20.578125 -37.09375 C 19.054688 -35.632812 17.628906 -34.3125 16.296875 -33.125 C 13.972656 -31.113281 11.550781 -29.234375 9.03125 -27.484375 C 6.507812 -25.734375 3.78125 -24.191406 0.84375 -22.859375 Z M 20.15625 -38.375 C 22.21875 -40.4375 24.238281 -42.535156 26.21875 -44.671875 C 28.195312 -46.804688 29.929688 -49.160156 31.421875 -51.734375 C 31.941406 -52.609375 32.421875 -53.5625 32.859375 -54.59375 C 33.296875 -55.625 33.488281 -56.753906 33.4375 -57.984375 C 33.332031 -58.296875 33.226562 -58.59375 33.125 -58.875 C 33.019531 -59.15625 32.84375 -59.398438 32.59375 -59.609375 C 32.28125 -59.765625 31.914062 -59.867188 31.5 -59.921875 C 31.09375 -59.972656 30.734375 -59.972656 30.421875 -59.921875 C 29.390625 -59.765625 28.394531 -59.46875 27.4375 -59.03125 C 26.488281 -58.59375 25.585938 -58.078125 24.734375 -57.484375 C 23.890625 -56.890625 23.09375 -56.269531 22.34375 -55.625 C 21.601562 -54.988281 20.925781 -54.390625 20.3125 -53.828125 C 17.476562 -51.148438 14.941406 -48.265625 12.703125 -45.171875 C 10.460938 -42.085938 8.390625 -38.789062 6.484375 -35.28125 C 5.503906 -33.53125 4.578125 -31.726562 3.703125 -29.875 C 2.828125 -28.03125 2.054688 -26.15625 1.390625 -24.25 C 4.941406 -26.207031 8.273438 -28.367188 11.390625 -30.734375 C 14.503906 -33.097656 17.425781 -35.644531 20.15625 -38.375 Z M 20.15625 -38.375 "/></g></g></g><g fill="#57484f" fill-opacity="1"><g transform="translate(355.679676, 80.313761)"><g><path d="M 5.09375 -25.015625 C 5.195312 -25.015625 5.3125 -25.050781 5.4375 -25.125 C 5.570312 -25.207031 5.742188 -25.222656 5.953125 -25.171875 C 6.148438 -24.960938 6.273438 -24.703125 6.328125 -24.390625 C 6.378906 -24.085938 6.390625 -23.753906 6.359375 -23.390625 C 6.335938 -23.035156 6.300781 -22.648438 6.25 -22.234375 C 6.195312 -21.828125 6.171875 -21.441406 6.171875 -21.078125 C 6.171875 -20.203125 6.429688 -19.613281 6.953125 -19.3125 C 8.128906 -19.207031 9.179688 -19.375 10.109375 -19.8125 C 11.035156 -20.25 11.910156 -20.695312 12.734375 -21.15625 C 13.515625 -21.625 14.144531 -22.035156 14.625 -22.390625 C 15.113281 -22.753906 15.488281 -23.050781 15.75 -23.28125 C 16.007812 -23.507812 16.21875 -23.648438 16.375 -23.703125 C 16.53125 -23.753906 16.679688 -23.675781 16.828125 -23.46875 C 16.828125 -23.21875 16.738281 -23.015625 16.5625 -22.859375 C 16.382812 -22.703125 16.21875 -22.546875 16.0625 -22.390625 C 15.90625 -22.285156 15.738281 -22.15625 15.5625 -22 C 15.382812 -21.851562 15.191406 -21.726562 14.984375 -21.625 C 14.671875 -21.363281 14.320312 -21.117188 13.9375 -20.890625 C 13.550781 -20.660156 13.175781 -20.414062 12.8125 -20.15625 C 12.351562 -19.945312 11.878906 -19.726562 11.390625 -19.5 C 10.898438 -19.269531 10.394531 -19.050781 9.875 -18.84375 C 9.363281 -18.632812 8.820312 -18.488281 8.25 -18.40625 C 7.6875 -18.332031 7.070312 -18.347656 6.40625 -18.453125 C 5.632812 -18.816406 5.222656 -19.578125 5.171875 -20.734375 C 5.117188 -21.890625 5.195312 -22.957031 5.40625 -23.9375 C 5.144531 -23.78125 4.875 -23.535156 4.59375 -23.203125 C 4.3125 -22.867188 4.039062 -22.546875 3.78125 -22.234375 C 3.375 -21.929688 2.988281 -21.570312 2.625 -21.15625 C 2.257812 -20.75 1.859375 -20.335938 1.421875 -19.921875 C 0.984375 -19.515625 0.53125 -19.15625 0.0625 -18.84375 C -0.394531 -18.53125 -0.90625 -18.375 -1.46875 -18.375 C -1.675781 -18.476562 -1.929688 -18.6875 -2.234375 -19 C -2.390625 -20.082031 -2.222656 -21.070312 -1.734375 -21.96875 C -1.242188 -22.863281 -0.71875 -23.726562 -0.15625 -24.5625 C 0.363281 -25.226562 0.90625 -25.851562 1.46875 -26.4375 C 2.03125 -27.03125 2.671875 -27.457031 3.390625 -27.71875 C 3.910156 -27.925781 4.425781 -27.925781 4.9375 -27.71875 C 5.039062 -27.613281 5.117188 -27.507812 5.171875 -27.40625 C 5.222656 -27.3125 5.300781 -27.210938 5.40625 -27.109375 C 5.507812 -26.691406 5.507812 -26.316406 5.40625 -25.984375 C 5.300781 -25.648438 5.195312 -25.328125 5.09375 -25.015625 Z M -0.6875 -20.078125 C -0.125 -20.335938 0.359375 -20.644531 0.765625 -21 C 1.179688 -21.363281 1.59375 -21.75 2 -22.15625 C 1.90625 -22.363281 1.859375 -22.546875 1.859375 -22.703125 C 2.160156 -23.265625 2.503906 -23.800781 2.890625 -24.3125 C 3.273438 -24.832031 3.519531 -25.453125 3.625 -26.171875 C 2.695312 -25.347656 1.847656 -24.457031 1.078125 -23.5 C 0.304688 -22.550781 -0.28125 -21.410156 -0.6875 -20.078125 Z M -0.6875 -20.078125 "/></g></g></g><path stroke-linecap="butt" transform="matrix(0.744668, 0, 0, 0.746681, 185.141659, 13.963328)" fill="none" stroke-linejoin="miter" d="M -0.00138917 1.498234 L 52.15066 1.498234 " stroke="#7d5d6c" stroke-width="3" stroke-opacity="1" stroke-miterlimit="4"/><path stroke-linecap="butt" transform="matrix(0.000000000000000046, -0.746789, 0.746681, 0.000000000000000046, 185.137007, 95.717937)" fill="none" stroke-linejoin="miter" d="M -0.00108877 1.501049 L 107.997686 1.501049 " stroke="#7d5d6c" stroke-width="3" stroke-opacity="1" stroke-miterlimit="4"/></svg>